HIERARCHY
ROOT hip
{
  OFFSET 0 0 0
  CHANNELS 6 Xposition Yposition Zposition Zrotation Yrotation Xrotation
  JOINT abdomen
  {
    OFFSET 0 20.6881 -0.73152
    CHANNELS 3 Zrotation Xrotation Yrotation
    JOINT chest
    {
      OFFSET 0 11.7043 -0.48768
      CHANNELS 3 Zrotation Xrotation Yrotation
      JOINT neck
      {
        OFFSET 0 22.1894 -2.19456
        CHANNELS 3 Zrotation Xrotation Yrotation
        JOINT head
        {
          OFFSET -0.24384 7.07133 1.2192
          CHANNELS 3 Zrotation Xrotation Yrotation
          JOINT leftEye
          {
            OFFSET 4.14528 8.04674 8.04672
            CHANNELS 3 Zrotation Xrotation Yrotation
            End Site
            {
              OFFSET 1 0 0
            }
          }
          JOINT rightEye
          {
            OFFSET -3.6576 8.04674 8.04672
            CHANNELS 3 Zrotation Xrotation Yrotation
            End Site
            {
              OFFSET 1 0 0
            }
          }
        }
      }
      JOINT rCollar
      {
        OFFSET -2.68224 19.2634 -4.8768
        CHANNELS 3 Zrotation Xrotation Yrotation
        JOINT rShldr
        {
          OFFSET -8.77824 -1.95073 1.46304
          CHANNELS 3 Zrotation Xrotation Yrotation
          JOINT rForeArm
          {
            OFFSET -28.1742 -1.7115 0.48768
            CHANNELS 3 Zrotation Xrotation Yrotation
            JOINT rHand
            {
              OFFSET -22.5879 0.773209 7.07136
              CHANNELS 3 Zrotation Xrotation Yrotation
              JOINT rThumb1
              {
                OFFSET -1.2192 -0.487915 3.41376
                CHANNELS 3 Zrotation Xrotation Yrotation
                JOINT rThumb2
                {
                  OFFSET -3.37035 -0.52449 3.41376
                  CHANNELS 3 Zrotation Xrotation Yrotation
                  End Site
                  {
                    OFFSET -1.78271 -1.18214 1.43049
                  }
                }
              }
              JOINT rIndex1
              {
                OFFSET -7.75947 0.938293 5.60832
                CHANNELS 3 Zrotation Xrotation Yrotation
                JOINT rIndex2
                {
                  OFFSET -2.54057 -0.884171 1.56538
                  CHANNELS 3 Zrotation Xrotation Yrotation
                  End Site
                  {
                    OFFSET -1.62519 -0.234802 1.16502
                  }
                }
              }
              JOINT rMid1
              {
                OFFSET -8.24714 1.18213 3.41376
                CHANNELS 3 Zrotation Xrotation Yrotation
                JOINT rMid2
                {
                  OFFSET -3.10165 -0.590103 1.0647
                  CHANNELS 3 Zrotation Xrotation Yrotation
                  End Site
                  {
                    OFFSET -2.48547 -0.328903 0.83742
                  }
                }
              }
              JOINT rRing1
              {
                OFFSET -8.82822 0.546677 1.51678
                CHANNELS 3 Zrotation Xrotation Yrotation
                JOINT rRing2
                {
                  OFFSET -2.60934 -0.819778 -0.0198488
                  CHANNELS 3 Zrotation Xrotation Yrotation
                  End Site
                  {
                    OFFSET -2.33842 -0.294052 0.168128
                  }
                }
              }
              JOINT rPinky1
              {
                OFFSET -8.27202 -0.0477905 -0.4584
                CHANNELS 3 Zrotation Xrotation Yrotation
                JOINT rPinky2
                {
                  OFFSET -1.82734 -0.647385 -0.700984
                  CHANNELS 3 Zrotation Xrotation Yrotation
                  End Site
                  {
                    OFFSET -1.69225 -0.51767 -0.607171
                  }
                }
              }
            }
          }
        }
      }
      JOINT lCollar
      {
        OFFSET 2.68224 19.2634 -4.8768
        CHANNELS 3 Zrotation Xrotation Yrotation
        JOINT lShldr
        {
          OFFSET 8.77824 -1.95073 1.46304
          CHANNELS 3 Zrotation Xrotation Yrotation
          JOINT lForeArm
          {
            OFFSET 28.1742 -1.7115 0.48768
            CHANNELS 3 Zrotation Xrotation Yrotation
            JOINT lHand
            {
              OFFSET 22.5879 0.773209 7.07136
              CHANNELS 3 Zrotation Xrotation Yrotation
              JOINT lThumb1
              {
                OFFSET 1.2192 -0.487915 3.41376
                CHANNELS 3 Zrotation Xrotation Yrotation
                JOINT lThumb2
                {
                  OFFSET 3.37035 -0.52449 3.41376
                  CHANNELS 3 Zrotation Xrotation Yrotation
                  End Site
                  {
                    OFFSET 1.78271 -1.18214 1.43049
                  }
                }
              }
              JOINT lIndex1
              {
                OFFSET 7.75947 0.938293 5.60832
                CHANNELS 3 Zrotation Xrotation Yrotation
                JOINT lIndex2
                {
                  OFFSET 2.54057 -0.884171 1.56538
                  CHANNELS 3 Zrotation Xrotation Yrotation
                  End Site
                  {
                    OFFSET 1.62519 -0.234802 1.16502
                  }
                }
              }
              JOINT lMid1
              {
                OFFSET 8.24714 1.18213 3.41376
                CHANNELS 3 Zrotation Xrotation Yrotation
                JOINT lMid2
                {
                  OFFSET 3.10165 -0.590103 1.0647
                  CHANNELS 3 Zrotation Xrotation Yrotation
                  End Site
                  {
                    OFFSET 2.48547 -0.328903 0.83742
                  }
                }
              }
              JOINT lRing1
              {
                OFFSET 8.82822 0.546677 1.51678
                CHANNELS 3 Zrotation Xrotation Yrotation
                JOINT lRing2
                {
                  OFFSET 2.60934 -0.819778 -0.0198488
                  CHANNELS 3 Zrotation Xrotation Yrotation
                  End Site
                  {
                    OFFSET 2.33842 -0.294052 0.168128
                  }
                }
              }
              JOINT lPinky1
              {
                OFFSET 8.27202 -0.0477905 -0.4584
                CHANNELS 3 Zrotation Xrotation Yrotation
                JOINT lPinky2
                {
                  OFFSET 1.82734 -0.647385 -0.700984
                  CHANNELS 3 Zrotation Xrotation Yrotation
                  End Site
                  {
                    OFFSET 1.69225 -0.51767 -0.607171
                  }
                }
              }
            }
          }
        }
      }
    }
  }
  JOINT rButtock
  {
    OFFSET -8.77824 4.35084 1.2192
    CHANNELS 3 Zrotation Xrotation Yrotation
    JOINT rThigh
    {
      OFFSET 0 -1.70687 -2.19456
      CHANNELS 3 Zrotation Xrotation Yrotation
      JOINT rShin
      {
        OFFSET 0 -36.8199 0.73152
        CHANNELS 3 Zrotation Xrotation Yrotation
        JOINT rFoot
        {
          OFFSET 0.73152 -45.1104 -5.12064
          CHANNELS 3 Zrotation Xrotation Yrotation
          End Site
          {
            OFFSET -1.1221 -3.69964 12.103
          }
        }
      }
    }
  }
  JOINT lButtock
  {
    OFFSET 8.77824 4.35084 1.2192
    CHANNELS 3 Zrotation Xrotation Yrotation
    JOINT lThigh
    {
      OFFSET 0 -1.70687 -2.19456
      CHANNELS 3 Zrotation Xrotation Yrotation
      JOINT lShin
      {
        OFFSET 0 -36.8199 0.73152
        CHANNELS 3 Zrotation Xrotation Yrotation
        JOINT lFoot
        {
          OFFSET -0.73152 -45.1104 -5.12064
          CHANNELS 3 Zrotation Xrotation Yrotation
          End Site
          {
            OFFSET 1.1221 -3.69964 12.103
          }
        }
      }
    }
  }
}
MOTION
Frames:	6
Frame Time:	0.00833333
-207.525 83.185 11.1798 0.0 0.0 0.0 -3.13118 0.00208552 -0.0845025 -0.863224 0.0181965 -0.14933 -1.99836e-14 2.38542e-15 -3.97569e-16 -5.99398e-14 9.54166e-15 -1.34646e-15 -0.0 0.0 0.0 -0.0 0.0 0.0 -1.0287e-14 3.04389e-16 -9.93923e-17 -2.06141e-13 6.36732e-15 -4.37326e-15 -3.52813e-12 1.29806e-12 -8.26944e-14 -4.09444e-11 6.06045e-14 -9.44625e-13 -9.64825e-11 2.94584e-12 -2.2073e-12 -1.66628e-10 5.08571e-12 -3.80076e-12 -9.64785e-11 2.94639e-12 -2.21049e-12 7.73091 5.47488 0.417314 -9.64832e-11 2.94559e-12 -2.20412e-12 2.90554 0.965183 0.102902 -9.64748e-11 2.94569e-12 -2.20333e-12 10.2786 0.731801 0.0259123 -9.64885e-11 2.94758e-12 -2.1914e-12 2.22167 -0.733487 -0.20892 -1.0586e-14 3.02448e-16 -3.97569e-16 -2.09441e-13 6.47914e-15 -6.16232e-15 -3.62345e-12 -8.46028e-13 -3.18055e-14 -4.08924e-11 2.20728e-12 -9.89153e-13 -9.65526e-11 2.9508e-12 -2.21685e-12 -1.6673e-10 5.09525e-12 -3.81508e-12 -9.65593e-11 2.95394e-12 -2.20094e-12 -7.73091 5.47488 -0.417314 -9.65528e-11 2.95086e-12 -2.21367e-12 -2.90554 0.965183 -0.102902 -9.65604e-11 2.95086e-12 -2.21208e-12 -10.2786 0.731801 -0.0259123 -9.65455e-11 2.95315e-12 -2.22321e-12 -2.22167 -0.733487 0.20892 -2.03217e-16 0.0 -3.88251e-19 -1.919 -1.93503 0.0146281 -0.00849909 -2.07867 -0.0697475 -0.458437 4.00011 0.132425 2.03217e-16 0.0 3.88251e-19 -2.83844 -9.32623 0.322373 -0.00902357 11.3078 -0.235067 0.527576 -1.99508 -0.018383
-202.705 81.5004 3.91193 177.316 78.2344 -178.414 -4.33581 4.57017 1.13669 -0.211887 1.28743 0.19123 -3.98786 4.54646 -2.99115 10.2442 -13.6369 -1.56197 -0.0 0.0 0.0 -0.0 0.0 0.0 -9.29522e-14 2.10131e-13 2.03923e-13 22.2226 18.7592 2.30479 -17.7673 -15.3047 15.0547 0.1728 -9.24566 -1.23918 2.95795e-10 -1.05887e-09 -4.72518e-10 5.19535e-10 -1.81771e-09 -8.04768e-10 2.95799e-10 -1.05886e-09 -4.72523e-10 7.73091 5.47488 0.417314 2.95794e-10 -1.05887e-09 -4.72515e-10 2.90554 0.965183 0.102902 2.95802e-10 -1.05887e-09 -4.72515e-10 10.2786 0.731801 0.0259123 2.95788e-10 -1.05886e-09 -4.72505e-10 2.22167 -0.733487 -0.20892 -9.31828e-14 2.1013e-13 2.03637e-13 -21.9294 13.3809 -0.690924 20.2483 -18.0136 -15.1587 -0.0970283 -6.92174 0.947375 -5.79447e-10 9.11141e-12 -1.23093e-09 -9.79794e-10 1.41914e-11 -2.13474e-09 -5.79453e-10 9.11401e-12 -1.23092e-09 -7.73091 5.47488 -0.417314 -5.79447e-10 9.11128e-12 -1.23093e-09 -2.90554 0.965183 -0.102902 -5.79453e-10 9.1114e-12 -1.23093e-09 -10.2786 0.731801 -0.0259123 -5.79441e-10 9.11425e-12 -1.23094e-09 -2.22167 -0.733487 0.20892 -2.03217e-16 0.0 -3.88251e-19 -2.58769 -6.299 -0.39188 0.0370445 8.29582 0.133363 -1.50779 -2.35831 -6.79922 2.03217e-16 0.0 3.88251e-19 -1.9206 -13.5859 0.150178 0.0143102 18.6075 -0.318063 0.611944 -4.8664 0.745359
-202.733 81.4579 3.78957 176.134 77.9733 -179.537 -5.82567 9.38201 2.44741 0.461458 2.63141 0.549715 -7.67764 9.31316 -6.21361 20.1698 -28.0315 -3.52712 -0.0 0.0 0.0 -0.0 0.0 0.0 -1.86066e-13 4.44268e-13 4.32599e-13 43.6625 38.4823 5.72361 -27.3023 -27.8509 34.2575 -0.102388 -19.0282 -2.66447 7.30573e-10 -2.2385e-09 -9.93948e-10 1.27998e-09 -3.84267e-09 -1.69273e-09 7.30577e-10 -2.2385e-09 -9.93955e-10 7.73091 5.47488 0.417314 7.30572e-10 -2.23851e-09 -9.93944e-10 2.90554 0.965183 0.102902 7.3058e-10 -2.2385e-09 -9.93946e-10 10.2786 0.731801 0.0259123 7.30566e-10 -2.23849e-09 -9.93938e-10 2.22167 -0.733487 -0.20892 -1.86224e-13 4.44267e-13 4.32326e-13 -44.732 27.5341 -1.55082 30.2002 -32.6341 -35.9346 0.0566647 -14.2555 1.99919 -1.11782e-09 1.33014e-11 -2.60384e-09 -1.88622e-09 1.96763e-11 -4.51566e-09 -1.11783e-09 1.33034e-11 -2.60382e-09 -7.73091 5.47488 -0.417314 -1.11782e-09 1.3301e-11 -2.60384e-09 -2.90554 0.965183 -0.102902 -1.11783e-09 1.33013e-11 -2.60383e-09 -10.2786 0.731801 -0.0259123 -1.11782e-09 1.33048e-11 -2.60384e-09 -2.22167 -0.733487 0.20892 -2.03217e-16 0.0 -3.88251e-19 -3.36468 -10.9093 -0.822394 0.00154565 19.2675 0.365835 -4.28942 -8.8477 -14.2797 2.03217e-16 0.0 3.88251e-19 -0.983703 -18.078 -0.0460402 0.0650204 26.316 -0.419839 0.787509 -7.9012 1.575
-202.771 81.4021 3.69857 175.816 77.7059 -179.86 -7.34313 13.6819 3.67258 1.04545 3.82546 0.874152 -10.5117 13.4886 -9.2011 27.8998 -40.7686 -6.01748 -0.0 0.0 0.0 -0.0 0.0 0.0 -2.58282e-13 6.29786e-13 6.11967e-13 59.1839 55.7633 11.6922 -28.5904 -32.2947 54.5593 -0.812107 -27.6816 -4.14426 1.08035e-09 -3.18249e-09 -1.41314e-09 1.89186e-09 -5.46332e-09 -2.4067e-09 1.08035e-09 -3.18249e-09 -1.41315e-09 7.73091 5.47488 0.417314 1.08035e-09 -3.1825e-09 -1.41314e-09 2.90554 0.965183 0.102902 1.08036e-09 -3.18249e-09 -1.41314e-09 10.2786 0.731801 0.0259123 1.08034e-09 -3.18249e-09 -1.41313e-09 2.22167 -0.733487 -0.20892 -2.58376e-13 6.29785e-13 6.11706e-13 -64.568 40.1156 -2.63721 29.8443 -37.11 -59.1317 0.435764 -20.7417 3.01712 -1.54524e-09 2.14326e-11 -3.68836e-09 -2.60592e-09 3.23836e-11 -6.39658e-09 -1.54524e-09 2.14341e-11 -3.68835e-09 -7.73091 5.47488 -0.417314 -1.54524e-09 2.14321e-11 -3.68837e-09 -2.90554 0.965183 -0.102902 -1.54524e-09 2.14325e-11 -3.68836e-09 -10.2786 0.731801 -0.0259123 -1.54523e-09 2.14365e-11 -3.68836e-09 -2.22167 -0.733487 0.20892 -2.03217e-16 0.0 -3.88251e-19 -4.11662 -15.024 -1.24018 -0.116467 29.0435 0.612303 -8.22534 -14.133 -21.3198 2.03217e-16 0.0 3.88251e-19 -0.166798 -22.1048 -0.214025 0.138859 33.2062 -0.529822 1.01384 -10.6019 2.30411
-202.821 81.3733 3.62669 176.126 77.4826 -179.46 -8.50961 16.7249 4.59665 1.43778 4.64512 1.11171 -12.2405 16.3291 -11.3843 32.2262 -49.4846 -8.65343 -0.0 0.0 0.0 -0.0 0.0 0.0 -2.78256e-13 6.93758e-13 6.68066e-13 64.3332 67.241 21.2263 -27.9817 -30.5041 68.0539 -1.61479 -33.5654 -5.35076 1.21762e-09 -3.53738e-09 -1.57674e-09 2.13234e-09 -6.07318e-09 -2.68568e-09 1.21762e-09 -3.53738e-09 -1.57675e-09 7.73091 5.47488 0.417314 1.21762e-09 -3.5374e-09 -1.57673e-09 2.90554 0.965183 0.102902 1.21763e-09 -3.53738e-09 -1.57674e-09 10.2786 0.731801 0.0259123 1.21761e-09 -3.53738e-09 -1.57673e-09 2.22167 -0.733487 -0.20892 -2.78309e-13 6.93758e-13 6.67817e-13 -77.8724 48.7906 -3.8022 28.3939 -34.1664 -73.9723 0.842904 -25.1318 3.78021 -1.69524e-09 3.9417e-11 -4.05195e-09 -2.8588e-09 6.31467e-11 -7.02746e-09 -1.69525e-09 3.94182e-11 -4.05193e-09 -7.73091 5.47488 -0.417314 -1.69524e-09 3.94164e-11 -4.05195e-09 -2.90554 0.965183 -0.102902 -1.69524e-09 3.94168e-11 -4.05195e-09 -10.2786 0.731801 -0.0259123 -1.69524e-09 3.9421e-11 -4.05195e-09 -2.22167 -0.733487 0.20892 -2.03217e-16 0.0 -3.88251e-19 -4.67613 -17.9021 -1.59591 -0.260723 35.8313 0.822376 -11.7704 -17.3498 -26.5411 2.03217e-16 0.0 3.88251e-19 0.415354 -24.9686 -0.292075 0.211738 38.0507 -0.622881 1.1948 -12.4744 2.75288
-202.863 81.3601 3.57504 176.653 77.3669 -178.846 -8.98993 18.028 5.04359 1.57559 4.93667 1.2286 -12.9129 17.3784 -12.2861 33.4613 -52.645 -10.1622 -0.0 0.0 0.0 -0.0 0.0 0.0 -2.17486e-13 5.69183e-13 5.33768e-13 62.9751 71.3052 28.3647 -27.9165 -28.6892 72.4445 -1.97586 -35.5858 -5.82213 1.06118e-09 -3.0315e-09 -1.35701e-09 1.85901e-09 -5.20549e-09 -2.31175e-09 1.06118e-09 -3.0315e-09 -1.35702e-09 7.73091 5.47488 0.417314 1.06117e-09 -3.03151e-09 -1.35701e-09 2.90554 0.965183 0.102902 1.06118e-09 -3.0315e-09 -1.35701e-09 10.2786 0.731801 0.0259123 1.06117e-09 -3.0315e-09 -1.357e-09 2.22167 -0.733487 -0.20892 -2.17534e-13 5.69182e-13 5.33535e-13 -82.759 52.0309 -4.48584 28.2969 -31.772 -78.5214 1.01534 -26.5823 4.05182 -1.43534e-09 6.60194e-11 -3.37392e-09 -2.42157e-09 1.10443e-10 -5.85219e-09 -1.43535e-09 6.60207e-11 -3.37391e-09 -7.73091 5.47488 -0.417314 -1.43534e-09 6.6019e-11 -3.37393e-09 -2.90554 0.965183 -0.102902 -1.43534e-09 6.60193e-11 -3.37392e-09 -10.2786 0.731801 -0.0259123 -1.43534e-09 6.60233e-11 -3.37392e-09 -2.22167 -0.733487 0.20892 -2.03217e-16 0.0 -3.88251e-19 -4.8999 -19.0538 -1.83935 -0.333896 38.4375 0.914181 -13.3126 -18.3645 -28.7322 2.03217e-16 0.0 3.88251e-19 0.710877 -26.2018 -0.210497 0.248334 40.0294 -0.66607 1.23148 -13.1906 2.77816
